<?xml version="1.0" encoding="UTF-8" standalone="no"?>
<!-- Japan Road Sign No. 207-B: Railroad Crossing Ahead (踏切あり - train) -->
<!-- Sourced from Wikimedia Commons: Road signs in Japan (File: Japan_road_sign_207-B.svg) -->
<svg
   xmlns="http://www.w3.org/2000/svg"
   viewBox="0 0 500.34 500.34"
   width="100%"
   height="100%"
   version="1.0">
  <path
     style="fill:#fcdc0f;fill-opacity:1;fill-rule:nonzero;stroke:none"
     d="m 496.8946,242.33616 c 4.33196,4.33195 4.33196,11.33928 0,15.67124 L 258.00741,496.89459 c -4.33196,4.33196 -11.33929,4.33196 -15.67125,0 L 3.4489782,258.0074 c -4.33196925,-4.33197 -4.33196925,-11.33928 -1e-5,-15.67124 L 242.33617,3.4489589 c 4.33195,-4.33194987 11.33929,-4.33194387 15.67125,1e-5 z" />
  <path
     style="fill:#000000;fill-opacity:1;fill-rule:nonzero;stroke:none"
     d="M 250.17179,12.231763 12.231779,250.17177 250.17179,488.1118 488.11181,250.17178 z m 16.73435,30.875126 190.33054,190.330551 c 9.25965,9.25963 9.25965,24.20902 1e-5,33.46868 L 266.90615,457.23668 c -9.25965,9.25963 -24.20908,9.25963 -33.46871,0 L 43.106879,266.90612 c -9.25963,-9.25964 -9.25964,-24.20905 0,-33.46869 L 233.43744,43.106869 c 9.25965,-9.259653 24.20905,-9.25963 33.4687,2e-5 z" />
  <path
     d="m 171.59825,283.55578 5.40771,0 c 0.16323,8.01974 5.9791,14.59063 13.67235,15.93745 l -32.7524,0 c 7.67282,-1.34682 13.48868,-7.91771 13.67234,-15.93745 m 38.42539,0 78.09562,0 c 0.16323,8.01974 6.04033,14.59063 13.71316,15.93745 l -105.4811,0 c 7.65242,-1.34682 13.48867,-7.91771 13.67232,-15.93745 m 111.13373,0 5.3873,0 c 0.16323,8.01974 6.04033,14.59063 13.69275,15.93745 l -32.7524,0 c 7.65243,-1.34682 13.50908,-7.91771 13.67235,-15.93745 m 24.73266,15.93745 c 7.65242,-1.34682 13.50908,-7.91771 13.69275,-15.93745 l 20.71257,0 c 0.20406,0 0.36732,-0.11426 0.36732,-0.3461 l 0,-3.4691 c 0,-0.16322 -0.16322,-0.30692 -0.36732,-0.30692 l -263.26405,0 c -0.22364,0 -0.38854,0.1469 -0.38854,0.30692 l 0,3.4691 c 0,0.22366 0.16323,0.3461 0.38854,0.3461 l 21.52885,0 c 0.18444,8.01974 6.04032,14.59063 13.67235,15.93745 l -43.81272,0 0,6.20357 283.40524,0 0,-6.20357 -45.93499,0"
     style="fill:#000000;fill-opacity:1;fill-rule:nonzero;stroke:none" />
  <path
     d="m 160.04819,210.50057 c 0,-1.89781 -1.57213,-3.48952 -3.53033,-3.48952 l -20.22284,0 c -1.95901,0 -3.55072,1.59171 -3.55072,3.48952 l 0,56.21985 c 0,1.91821 1.59171,3.44869 3.55072,3.44869 l 20.22284,0 c 1.95901,0 3.53033,-1.52966 3.53033,-3.44869 l 0,-56.21985 z m -2.4692,28.30378 c 0,0.97952 -0.79666,1.77537 -1.79577,1.77537 l -18.73315,0 c -1.02033,0 -1.79577,-0.79503 -1.79577,-1.77537 l 0,-27.05899 c 0,-0.91912 0.77544,-1.75496 1.79577,-1.75496 l 18.73315,0 c 1.00074,0 1.79577,0.83747 1.79577,1.75496 l 0,27.05899"
     style="fill:#000000;fill-opacity:1;fill-rule:nonzero;stroke:none" />
  <path
     d="m 368.25553,267.51627 c 0,2.93855 -2.36716,5.30569 -5.26489,5.30569 l -21.65126,0 c -2.93853,0 -5.28529,-2.36714 -5.28529,-5.30569 l 0,-57.5871 c 0,-2.8977 2.34676,-5.28526 5.28529,-5.28526 l 21.65126,0 c 2.89773,0 5.26489,2.38756 5.26489,5.28526 l 0,57.5871 z m -205.71777,0 c 0,2.93855 -2.36713,5.30569 -5.28526,5.30569 l -21.69211,0 c -2.89771,0 -5.24446,-2.36714 -5.24446,-5.30569 l 0,-57.5871 c 0,-2.8977 2.34675,-5.28526 5.24446,-5.28526 l 21.69211,0 c 2.91813,0 5.28526,2.38756 5.28526,5.28526 l 0,57.5871 z m 161.74179,-28.71192 c 0,0.97952 -0.79503,1.77537 -1.75496,1.77537 l -22.10022,0 c -1.00073,0 -1.77536,-0.79503 -1.77536,-1.77537 l 0,-30.73215 c 0,-0.9583 0.77544,-1.79577 1.77536,-1.79577 l 22.10022,0 c 0.95993,0 1.75496,0.83747 1.75496,1.79577 l 0,30.73215 z m -30.99744,0 c 0,0.97952 -0.81627,1.77537 -1.75496,1.77537 l -22.10022,0 c -0.95993,0 -1.75496,-0.79503 -1.75496,-1.77537 l 0,-30.73215 c 0,-0.9583 0.79666,-1.79577 1.75496,-1.79577 l 22.10022,0 c 0.93869,0 1.75496,0.83747 1.75496,1.79577 l 0,30.73215 z m -30.99746,0 c 0,0.97952 -0.77545,1.77537 -1.75494,1.77537 l -22.10024,0 c -0.93869,0 -1.71413,-0.79503 -1.71413,-1.77537 l 0,-30.73215 c 0,-0.9583 0.77544,-1.79577 1.71413,-1.79577 l 22.10024,0 c 0.97949,0 1.75494,0.83747 1.75494,1.79577 l 0,30.73215 z m -30.97704,0 c 0,0.97952 -0.79503,1.77537 -1.75496,1.77537 l -22.10022,0 c -0.97951,0 -1.77536,-0.79503 -1.77536,-1.77537 l 0,-30.73215 c 0,-0.9583 0.79666,-1.79577 1.77536,-1.79577 l 22.10022,0 c 0.95993,0 1.75496,0.83747 1.75496,1.79577 l 0,30.73215 z m -30.95663,0 c 0,0.97952 -0.83747,1.77537 -1.77537,1.77537 l -22.07981,0 c -1.00074,0 -1.79577,-0.79503 -1.79577,-1.77537 l 0,-30.73215 c 0,-0.9583 0.79666,-1.79577 1.79577,-1.79577 l 22.07981,0 c 0.93871,0 1.77537,0.83747 1.77537,1.79577 l 0,30.73215 z m -13.97844,-77.44259 27.26306,16.40681 -27.26306,16.4068 -27.30387,-16.4068 27.30387,-16.40681 z m 177.06706,32.97688 -165.96592,0 28.0181,-16.57007 -39.11924,-23.12054 -39.18045,23.12054 28.0181,16.57007 -40.99662,0 c -9.93795,0 -17.95771,8.01974 -17.95771,17.9781 l 0,57.99524 c 0,3.57113 2.85692,6.44843 6.40764,6.44843 l 252.36697,0 c 3.53033,0 6.38724,-2.8773 6.38724,-6.44843 l 0,-57.99524 c 0,-9.95836 -8.06057,-17.9781 -17.97811,-17.9781"
     style="fill:#000000;fill-opacity:1;fill-rule:nonzero;stroke:none" />
  <path
     d="m 365.78633,210.50057 c 0,-1.89781 -1.59169,-3.48952 -3.5099,-3.48952 l -20.24324,0 c -1.91821,0 -3.5099,1.59171 -3.5099,3.48952 l 0,56.21985 c 0,1.91821 1.59169,3.44869 3.5099,3.44869 l 20.24324,0 c 1.91821,0 3.5099,-1.52966 3.5099,-3.44869 l 0,-56.21985 z m -2.46917,28.30378 c 0,0.97952 -0.77545,1.77537 -1.77537,1.77537 l -18.75356,0 c -1.00073,0 -1.79577,-0.79503 -1.79577,-1.77537 l 0,-27.05899 c 0,-0.91912 0.79667,-1.75496 1.79577,-1.75496 l 18.75356,0 c 1.00074,0 1.77537,0.83747 1.77537,1.75496 l 0,27.05899"
     style="fill:#000000;fill-opacity:1;fill-rule:nonzero;stroke:none" />
</svg>
